/* XPM */
static char *result[] = {
/* columns rows colors chars-per-pixel */
"20 20 31 1 ",
"  c #5B7DBB",
". c #5A7DBC",
"X c #5A7DBD",
"o c #597DBE",
"O c #4F7EC9",
"+ c #4E7ECA",
"@ c #4F7ECA",
"# c #4E7ECB",
"$ c #4B7ECD",
"% c #4B7FCD",
"& c #4B7ECE",
"* c #4A7FCE",
"= c #4C7ECC",
"- c #4D7ECC",
"; c #4C7ECD",
": c #4C7FCD",
"> c #507EC9",
", c #477ED1",
"< c #477FD1",
"1 c #497ED0",
"2 c #3780DD",
"3 c #3680DE",
"4 c #3980DC",
"5 c #2781E5",
"6 c #2F80E1",
"7 c #2F80E2",
"8 c #2881E5",
"9 c #3180E0",
"0 c #3080E1",
"q c #3180E1",
"w c #3280E0",
/* pixels */
"X->@@@@@@@@@@@@@+O$ ",
"<8q77777677667776q5*",
";w42222222222222249#",
"%023333333333333320-",
"%023333333333333320-",
"%023333333333333320-",
"%023333333333333320=",
"%023333333333333320=",
"%023333333333333320=",
":023333333333333320;",
":023333333333333320:",
":023333333333333320:",
";023333333333333320$",
";023333333333333320&",
";023333333333333320&",
";023333333333333320&",
";023333333333333320&",
"-w4222222222222224w$",
"18q67677777777666q8,",
".;@++++##++#+#+##+$o"
};
