/* XPM */
static char *result[] = {
/* columns rows colors chars-per-pixel */
"20 20 44 1 ",
"  c black",
". c #07080B",
"X c #07080C",
"o c #08080B",
"O c #08090B",
"+ c #08090D",
"@ c #080A0D",
"# c #0F1015",
"$ c #0F1115",
"% c #0E1016",
"& c #363A43",
"* c #343946",
"= c #343949",
"- c #393E49",
"; c #3B3F4C",
": c #3A3F4D",
"> c #3B3F4D",
", c #3A3F4E",
"< c #3B404B",
"1 c #3C4049",
"2 c #3C404A",
"3 c #3C404B",
"4 c #3B404C",
"5 c #3B404F",
"6 c #3D414C",
"7 c #3C414E",
"8 c #3D424F",
"9 c #3B4050",
"0 c #3B4151",
"q c #3C4152",
"w c #3F4452",
"e c #414654",
"r c #414655",
"t c #404557",
"y c #404656",
"u c #414656",
"i c #404657",
"p c #414757",
"a c #424855",
"s c #414759",
"d c #505565",
"f c #525867",
"g c #525868",
"h c #535969",
/* pixels */
"f8aeererrrrrrruuyp0h",
"*                  -",
"7 $+++++++++++@++$ w",
"4 X              O 6",
"4 X              o 1",
"4 .              o 1",
"4 .              o 1",
"< .              . 2",
"< .              . 2",
"< .              . 2",
"< .              . 3",
"< .              . <",
"< .              . ;",
"< .              X >",
"3 .              X :",
"2 .              X ,",
"2 .              X ,",
"6 #++++++++++++++% 9",
"&                  =",
"gqpyyiiiiiiiiiiits5d"
};
