/* XPM */
static char *result[] = {
/* columns rows colors chars-per-pixel */
"20 20 11 1 ",
"  c #6F6F6F",
". c gray44",
"X c #717171",
"o c gray45",
"O c gray46",
"+ c gray47",
"@ c gray51",
"# c #8B8B8B",
"$ c #909090",
"% c #FEFEFE",
"& c white",
/* pixels */
"                    ",
"  O$$$$$$$$$$$$$$$. ",
"  #&&&&&&&&&&&&&&&o ",
"  #&&&&&&&&&&&&&&%o ",
"  #&&&&&&&&&&&&&&&o ",
"  #&&&&&&&&&&&&&&&o ",
"  #&&&&&&&&&&&&&&&o ",
"  #&&&&&&&&&&&&&&&o ",
"  #&&&&&&&&&&&&&&&o ",
"  #&&&&&&&&&&&&&&&o ",
"  #&&&&&&&&&&&&&&&o ",
"  #&&&&&&&&&&&&&&&o ",
"  #&&&&&&&&&&&&&&&o ",
"  #&&&&&&&&&&&&&&&o ",
"  #&&&&&&&&&&&&&&&o ",
"  #&&&&&&&&&&&&&&&o ",
"  #&&&&&&&&&&&&&&%o ",
"  o@@@@@@@@@@@@@@@. ",
"  X+++++++++++++++  ",
".                   "
};
